<svg xmlns="http://www.w3.org/2000/svg" viewBox="0 0 64 64">
  <defs>
    <linearGradient id="shieldGrad" x1="0%" y1="0%" x2="100%" y2="100%">
      <stop offset="0%" style="stop-color:#1a1a1a;stop-opacity:1" />
      <stop offset="100%" style="stop-color:#0d0d0d;stop-opacity:1" />
    </linearGradient>
    <linearGradient id="redGrad" x1="0%" y1="0%" x2="100%" y2="100%">
      <stop offset="0%" style="stop-color:#ff3b3b;stop-opacity:1" />
      <stop offset="100%" style="stop-color:#c41e1e;stop-opacity:1" />
    </linearGradient>
  </defs>
  <!-- Shield outer shape -->
  <path d="M32 4 L56 12 L56 28 C56 44 44 54 32 60 C20 54 8 44 8 28 L8 12 Z" 
        fill="url(#shieldGrad)" 
        stroke="#ff3b3b" 
        stroke-width="2"/>
  <!-- Inner red accent -->
  <path d="M32 10 L50 16 L50 28 C50 40 40 48 32 53 C24 48 14 40 14 28 L14 16 Z" 
        fill="none" 
        stroke="url(#redGrad)" 
        stroke-width="1.5"/>
  <!-- Center emblem - stylized "A" for Admin -->
  <path d="M32 20 L40 40 L36 40 L34 34 L30 34 L28 40 L24 40 L32 20 Z M32 26 L30 32 L34 32 L32 26 Z" 
        fill="url(#redGrad)"/>
</svg>
